# xmcd
#
# Track frame offsets:
#	150
#	8718
#	21694
#	30969
#	44911
#	63289
#	79441
#	91024
#	107221
#	116404
#	129265
#	147629
#	166896
#	181732
#	203958
#	210588
#	217714
#	228945
#	248377
#	260846
#	273619
#	293541
#
# Disc length: 4147 seconds
#
# Revision: 0
# Processed by: cddbd v1.5.2PL0 Copyright (c) Steve Scherf et al.
# Submitted via: EasyCDDAExtractor 10.0.1.1
#
DISCID=35103116
DTITLE=Time Bomb - Paris New York connection
DYEAR=2006
DGENRE=Rap
TTITLE0=intro la rencontre
TTITLE1=Ntm and Nas - affirmative action
TTITLE2=Iam and Wu tang - la saga
TTITLE3=Kery james and Method man - hardcore
TTITLE4=Lyon s - amis ennemis (inedit)
TTITLE5=Mc jean gab1 and Royce da 59 - internationally known
TTITLE6=Saian supa crew and Brand nubian - sos baty boy
TTITLE7=Triptik and Blahzay blahzay - le clash
TTITLE8=Raphael, Loucha and Shyheim - worldwide
TTITLE9=Tandem and Nas - made you look
TTITLE10=Pit baccardi and Royal flush - j'en veux au monde
TTITLE11=Mic pro - j'attaque du mic 2006 (inedit)
TTITLE12=Kery james and Mobb deep - les miens
TTITLE13=Iam and Nas - the second coming
TTITLE14=Oxmo puccino and High&mighty - bboy document
TTITLE15=Mr r and Prodigy - internationnal hustler
TTITLE16=Booba and Mobb deep - numero 10
TTITLE17=Kostaire, Asco and Aloe blacc - genre de emcee
TTITLE18=Ol'kainry and Raekwon - de park hill a 91 pise
TTITLE19=Iam and Cormega - un bon son brut
TTITLE20=Ait and Eminem - love u more (inedit)
TTITLE21=Boomer - marseillaise (inedit)
EXTD=
EXTT0=
EXTT1=
EXTT2=
EXTT3=
EXTT4=
EXTT5=
EXTT6=
EXTT7=
EXTT8=
EXTT9=
EXTT10=
EXTT11=
EXTT12=
EXTT13=
EXTT14=
EXTT15=
EXTT16=
EXTT17=
EXTT18=
EXTT19=
EXTT20=
EXTT21=
PLAYORDER=
